<svg width="38" height="38" viewBox="0 0 38 38" fill="none" xmlns="http://www.w3.org/2000/svg">
<g clip-path="url(#clip0)">
<path fill-rule="evenodd" clip-rule="evenodd" d="M12.6494 7.10149C14.3643 8.15917 15.42 8.88867 15.8164 9.29001C16.411 9.89202 19.82 13.3436 20.26 13.789C20.7 14.2345 20.4893 14.5302 21.7301 15.7865C22.9709 17.0427 25.4753 20.7353 25.7845 21.0484C26.0937 21.3614 26.718 21.7136 27.6799 22.9674C28.6417 24.2212 30.3382 26.2715 31.8941 27.6805C33.4501 29.0895 33.0838 27.603 33.9064 29.7178C34.7289 31.8326 35.406 33.5644 35.62 33.7812C35.8341 33.9979 35.9544 35.2485 35.7709 35.4342C35.5875 35.6199 34.765 36.0327 34.3586 36.0167C33.9523 36.0006 33.0678 36.3391 32.9235 36.193C32.7792 36.0469 31.7611 35.7186 31.1642 35.1143C30.5674 34.51 29.4512 34.3128 28.3937 32.7756C27.3361 31.2384 27.2852 31.283 25.9829 29.1659C24.6806 27.0488 24.3988 26.817 22.9947 25.3686C21.5905 23.9202 20.6449 23.0163 19.893 22.2282C19.141 21.4401 18.5085 20.8264 17.6303 19.9373C16.7522 19.0483 16.8669 19.5386 14.9133 17.5606C12.9596 15.5826 14.6271 16.8733 12.2482 14.8623C9.86929 12.8513 12.2854 15.9122 8.48305 11.7551C4.68066 7.59793 5.86355 10.1107 3.54548 6.44859C1.22741 2.7865 0.912255 3.10779 1.14825 2.39206C1.38425 1.67632 0.430331 1.76722 1.66481 1.47655C2.89929 1.18588 1.57137 0.737972 3.87014 1.1862C6.1689 1.63444 5.66488 1.32581 6.96596 1.99514C8.26703 2.66448 7.92356 2.31671 8.70109 3.10394C9.47862 3.89117 10.0453 4.46489 10.6101 5.0368C10.9867 5.41807 11.6665 6.1063 12.6494 7.10149Z" fill="white"/>
<path fill-rule="evenodd" clip-rule="evenodd" d="M4.90885 28.8568C5.43773 27.722 5.82007 27.0352 6.05587 26.7965C6.40956 26.4384 6.93578 25.2799 7.7775 24.4277C8.61921 23.5755 8.74238 23.8805 9.87107 22.308C10.9998 20.7355 13.8834 17.4284 14.5941 16.7089C15.3047 15.9893 15.5706 15.7201 16.9225 14.3514C18.2744 12.9826 18.8406 12.4094 19.9689 11.267C21.0973 10.1245 21.1387 10.0826 23.221 7.97429C25.3034 5.866 24.9296 6.24445 26.2413 4.91639C27.553 3.58833 28.5823 3.3634 29.3045 2.63218C30.0267 1.90096 29.789 2.18119 30.9011 1.86641C32.0132 1.55162 31.9607 1.61783 32.6406 1.3513C33.3206 1.08477 33.9886 1.02055 34.4339 1.22194C34.8791 1.42333 36.2116 1.84138 36.3985 2.03058C36.5854 2.21978 37.3015 2.31673 37.2813 2.92438C37.2611 3.53203 37.6919 3.24805 37.0607 4.2177C36.4294 5.18735 37.1278 3.9218 35.6822 5.96997C34.2367 8.01813 34.933 8.06121 33.8151 9.19303C32.6972 10.3249 34.5959 8.707 32.1078 11.2261C29.6197 13.7452 29.7864 13.5765 28.2834 15.0982C26.7805 16.6198 27.0382 16.6634 25.5167 17.8994C23.9951 19.1355 24.4612 19.0027 22.8214 20.3238C21.1817 21.645 21.6454 21.1277 19.7389 23.058C17.8323 24.9883 17.9744 25.2313 16.436 26.7889C14.8977 28.3464 15.0306 28.2118 13.5331 29.728C12.0355 31.2443 14.6392 30.2974 11.6735 31.6108C8.70782 32.9242 9.43646 32.2312 7.97137 33.1572C6.50627 34.0832 7.00187 33.9627 6.07416 34.5207C5.14645 35.0788 6.1679 35.1613 4.68872 35.3974C3.20953 35.6335 3.41543 36.2988 2.53253 35.6918C1.64964 35.0847 1.24143 35.9531 1.48042 34.3057C1.71941 32.6582 3.26734 30.5188 3.79186 29.9877C4.14154 29.6337 4.51387 29.2567 4.90885 28.8568Z" fill="white"/>
</g>
<defs>
<clipPath id="clip0">
<rect width="38" height="37.1915" fill="white"/>
</clipPath>
</defs>
</svg>
