<?xml version="1.0" encoding="UTF-8"?>
<svg width="230px" height="353px" viewBox="0 0 230 353" version="1.1" xmlns="http://www.w3.org/2000/svg" xmlns:xlink="http://www.w3.org/1999/xlink">
    <!-- Generator: Sketch 64 (93537) - https://sketch.com -->
    <title>Group</title>
    <desc>Created with Sketch.</desc>
    <g id="Page-1" stroke="none" stroke-width="1" fill="none" fill-rule="evenodd">
        <g id="Scroll" transform="translate(-266.000000, -671.000000)">
            <g id="Group" transform="translate(218.000000, 297.000000)">
                <path d="M124.839137,633.034167 C76.8705897,633.034167 168.631242,790.591423 137.871269,777.191255 C107.111296,763.791088 75.9632802,736.980807 75.9632802,691.42117 C75.9632802,645.861533 106.801595,614.421354 100.151485,570.098296 C93.5013754,525.775238 58.8841696,558.073714 45.3394482,487.312977 C31.7947269,416.552241 -23.8539194,419.691384 -17.4960476,375.762617 C-11.1381758,331.83385 -35.2862085,285.045476 24.6154087,260.231745 C84.5170259,235.418013 159.199579,135.746137 253.433186,155.597122 C347.666794,175.448107 360.481993,276.708267 425.803353,316.227185 C491.124713,355.746103 481.676989,360.881732 529.07815,353.163034 C576.479311,345.444337 576.479311,316.227185 635.024723,316.227185 C693.570135,316.227185 739.816287,363.700073 754.260455,386.944976 C768.704623,410.189878 806.680198,490.596465 798.980514,554.609078 C790.049053,615.7173 695.817633,579.318728 635.024723,611.733135 C574.231813,644.147541 506.89162,649.864932 390.809245,593.19531 C274.726871,536.525689 139.447687,563.241145 137.871269,564.505021 C88.0450632,604.45265 172.807685,633.034167 124.839137,633.034167 Z" id="Path-3-Copy-8" fill="#F8F1EB" transform="translate(391.000000, 465.500000) rotate(-78.000000) translate(-391.000000, -465.500000) "></path>
                <path d="M161.169588,601.108767 L165.270848,601.191049 C186.400097,604.235358 195.086649,612.479362 208.05412,628.531997 C209.807264,630.702242 213.244096,631.922033 213.730095,634.677246 C214.69089,640.124164 212.838053,645.712541 212.050398,651.187606 C209.306038,670.263925 191.946773,678.664518 175.377022,682.680241 C159.253325,686.587862 145.087812,662.78591 139.823444,651.319256 C128.289962,626.197448 138.23749,611.366365 161.169588,601.108767 L161.169588,601.108767 Z M168.280502,643.074933 L168.230613,643.075658 C168.035237,643.075658 167.84414,643.13289 167.680927,643.240286 C167.219565,643.543869 167.091659,644.163981 167.395242,644.625343 L167.395242,644.625343 L173.164661,653.393273 C173.23946,653.506948 173.336672,653.60416 173.450346,653.678959 C173.911709,653.982542 174.531821,653.854636 174.835404,653.393273 L174.835404,653.393273 L180.604823,644.625343 C180.712219,644.462131 180.769451,644.271034 180.769451,644.075658 C180.769451,643.523373 180.321736,643.075658 179.769451,643.075658 L179.769451,643.075658 L179.718502,643.074933 L174.835404,650.496486 L174.765679,650.59021 C174.444043,650.973919 173.878755,651.06407 173.450346,650.782171 L173.450346,650.782171 L173.34238,650.700122 C173.274354,650.640735 173.214527,650.572269 173.164661,650.496486 L173.164661,650.496486 L168.280502,643.074933 Z M178.288502,635.108767 L174.835404,640.357729 L174.765679,640.451453 C174.444043,640.835163 173.878755,640.925313 173.450346,640.643414 L173.450346,640.643414 L173.34238,640.561365 C173.274354,640.501978 173.214527,640.433512 173.164661,640.357729 L173.164661,640.357729 L169.710502,635.108767 L168.230613,635.109491 C168.035237,635.109491 167.84414,635.166724 167.680927,635.27412 C167.219565,635.577703 167.091659,636.197814 167.395242,636.659177 L167.395242,636.659177 L173.164661,645.427107 C173.23946,645.540781 173.336672,645.637994 173.450346,645.712793 C173.911709,646.016376 174.531821,645.88847 174.835404,645.427107 L174.835404,645.427107 L180.604823,636.659177 C180.712219,636.495965 180.769451,636.304868 180.769451,636.109491 C180.769451,635.557207 180.321736,635.109491 179.769451,635.109491 L179.769451,635.109491 L178.288502,635.108767 Z" id="Combined-Shape" fill="#793D37"></path>
            </g>
        </g>
    </g>
</svg>